<?xml version="1.0" standalone="no"?>
<!DOCTYPE svg PUBLIC "-//W3C//DTD SVG 20010904//EN"
 "http://www.w3.org/TR/2001/REC-SVG-20010904/DTD/svg10.dtd">
<svg version="1.0" xmlns="http://www.w3.org/2000/svg"
 width="1280.000000pt" height="1280.000000pt" viewBox="0 0 1280.000000 1280.000000"
 preserveAspectRatio="xMidYMid meet">

<g transform="translate(0.000000,1280.000000) scale(0.100000,-0.100000)"
fill="#000000" stroke="none">
<path d="M2940 8433 c-167 -29 -312 -137 -468 -349 -68 -93 -96 -131 -267
-373 -38 -55 -97 -136 -130 -182 -33 -45 -82 -115 -110 -155 -58 -83 -197
-279 -290 -409 -36 -49 -82 -115 -102 -145 -21 -30 -76 -107 -123 -171 -101
-138 -147 -202 -421 -588 -115 -161 -209 -301 -209 -311 0 -10 8 -19 17 -21
10 -2 221 -2 470 1 501 6 467 0 493 75 14 42 39 84 93 151 17 23 58 74 89 115
31 41 78 101 103 134 26 33 56 71 68 85 12 14 47 60 77 102 30 42 105 145 165
228 61 84 119 166 130 184 11 17 76 110 145 206 183 255 214 298 265 372 26
36 55 74 65 83 18 16 21 16 44 1 14 -9 71 -84 127 -168 56 -84 116 -171 133
-193 18 -22 58 -80 90 -130 81 -126 147 -221 172 -246 21 -21 26 -21 484 -21
259 1 467 5 472 10 11 11 -6 57 -37 98 -14 18 -53 74 -88 125 -35 52 -89 130
-121 174 -31 44 -94 136 -141 205 -46 69 -104 152 -129 185 -25 32 -51 71 -58
85 -7 14 -34 52 -59 85 -25 33 -70 96 -99 140 -284 424 -395 542 -555 589
-113 33 -214 43 -295 29z"/>
<path d="M9000 8434 c-120 -24 -224 -81 -322 -178 -55 -54 -196 -231 -228
-286 -8 -14 -42 -63 -75 -109 -33 -45 -88 -122 -123 -169 -34 -48 -82 -116
-107 -152 -25 -36 -55 -77 -66 -91 -29 -36 -20 -56 54 -120 174 -150 262 -314
303 -569 10 -58 20 -109 24 -113 7 -7 68 70 152 193 132 191 266 380 334 468
28 37 58 81 67 97 8 17 26 41 40 54 25 22 26 22 54 6 15 -9 53 -56 84 -103 31
-48 115 -172 186 -277 72 -104 168 -246 215 -315 47 -69 118 -170 157 -225 43
-60 71 -108 69 -120 -3 -20 -13 -20 -688 -25 l-684 -5 -13 -25 c-7 -14 -13
-37 -13 -51 0 -31 -33 -141 -63 -214 -36 -86 -97 -181 -174 -271 -45 -52 -71
-90 -65 -96 13 -13 3108 -11 3133 2 17 10 18 14 5 43 -13 31 -97 156 -193 287
-27 35 -59 82 -73 105 -21 35 -108 160 -215 310 -42 58 -323 464 -377 545 -21
30 -74 107 -119 170 -106 149 -149 215 -149 226 0 4 -13 22 -29 39 -16 16 -68
89 -116 160 -48 72 -91 132 -95 135 -4 3 -23 30 -43 60 -40 62 -78 118 -187
270 -113 160 -255 287 -340 305 -19 4 -48 14 -64 22 -30 16 -205 27 -256 17z"/>
<path d="M5510 8390 c-276 -21 -497 -100 -684 -244 -44 -34 -131 -149 -163
-216 -90 -190 -104 -437 -35 -630 31 -87 102 -197 165 -257 117 -109 245 -169
485 -225 31 -7 348 -13 952 -18 957 -7 975 -8 1045 -54 41 -27 65 -75 65 -130
0 -105 -35 -157 -125 -187 -33 -11 -458 -15 -2313 -19 l-2274 -5 -49 -55 c-26
-30 -49 -59 -49 -63 0 -5 -24 -37 -53 -70 -29 -34 -72 -87 -95 -117 -23 -30
-78 -102 -123 -160 -93 -119 -139 -188 -139 -207 0 -11 452 -13 2503 -13 2714
1 2664 0 2870 55 324 87 520 243 595 475 64 197 77 362 41 517 -69 297 -256
453 -634 530 l-130 27 -915 5 -915 6 -48 24 c-66 32 -100 84 -100 154 0 82 32
129 108 164 37 17 107 18 1043 23 l1004 5 26 32 c15 17 57 71 94 120 167 219
262 343 307 399 27 33 56 77 64 96 15 35 14 36 -6 42 -31 8 -2403 4 -2517 -4z"/>
<path d="M3758 4929 c-25 -14 -25 -90 0 -112 27 -24 97 -22 122 3 24 24 26 67
4 98 -12 17 -25 22 -62 22 -26 0 -55 -5 -64 -11z m124 -83 c-13 -28 -49 -41
-87 -32 -38 10 -30 26 10 19 40 -6 65 9 65 40 0 16 3 18 12 9 9 -9 9 -18 0
-36z"/>
<path d="M8832 4890 c-47 -11 -55 -22 -51 -68 l4 -39 -42 5 c-55 6 -126 -21
-152 -57 -66 -92 -46 -250 39 -313 36 -26 120 -34 159 -15 23 12 38 13 63 5
22 -6 42 -6 61 1 l27 11 0 240 0 240 -37 -1 c-21 -1 -53 -5 -71 -9z m-46 -227
c9 -63 -3 -194 -20 -211 -12 -12 -15 -12 -24 4 -24 48 -32 236 -12 275 l13 23
18 -23 c10 -12 21 -43 25 -68z"/>
<path d="M4855 4883 c-11 -2 -30 -6 -43 -9 -42 -9 -101 -72 -117 -127 -19 -66
-19 -161 1 -220 69 -202 404 -171 404 38 0 24 -4 35 -15 35 -8 0 -15 -5 -15
-10 0 -19 -65 -50 -104 -50 -93 0 -164 147 -125 259 18 50 40 36 62 -39 23
-83 55 -115 106 -106 45 7 61 28 61 80 0 53 -29 100 -77 124 -40 20 -105 32
-138 25z m18 -30 c-35 -7 -46 -30 -54 -106 l-8 -72 3 79 c3 85 17 108 60 105
20 -2 20 -2 -1 -6z m187 -127 c0 -14 -7 -32 -16 -40 -17 -18 -69 -21 -79 -6
-4 7 2 9 18 5 28 -7 67 22 67 50 0 8 2 15 5 15 3 0 5 -11 5 -24z m8 -224 c-42
-85 -157 -117 -255 -72 -53 24 -57 35 -5 13 52 -22 141 -21 186 3 35 18 46 32
77 97 7 16 15 24 17 18 2 -7 -7 -33 -20 -59z"/>
<path d="M3404 4858 c-9 -14 -9 -436 0 -445 12 -13 123 -15 145 -3 20 10 22
18 19 88 l-3 77 38 -3 c50 -4 67 11 67 59 0 42 -15 52 -75 47 -29 -3 -30 -2
-33 46 -4 63 8 74 45 46 21 -15 41 -20 64 -18 32 3 34 5 37 46 5 69 -1 72
-159 72 -93 0 -140 -4 -145 -12z m296 -58 c0 -33 -19 -47 -47 -35 -16 7 -14 9
7 15 17 4 25 13 24 28 0 12 3 22 8 22 4 0 8 -14 8 -30z m-90 6 c0 -2 -13 -6
-30 -8 -16 -3 -30 -1 -30 4 0 4 14 8 30 8 17 0 30 -2 30 -4z m-63 -98 c-2 -13
-4 -3 -4 22 0 25 2 35 4 23 2 -13 2 -33 0 -45z m113 -93 c0 -23 -3 -24 -54
-22 -61 2 -66 17 -5 17 26 0 42 5 45 15 9 22 14 18 14 -10z m-113 -107 c-2
-13 -4 -3 -4 22 0 25 2 35 4 23 2 -13 2 -33 0 -45z m11 -65 c-3 -15 -14 -18
-67 -18 -45 0 -66 4 -69 13 -3 11 0 12 16 3 29 -16 79 -14 94 4 18 20 30 19
26 -2z"/>
<path d="M7985 4864 c-6 -2 -10 -87 -9 -226 0 -210 1 -222 20 -229 28 -11 238
-11 267 0 30 12 42 55 28 94 -13 34 -56 37 -94 7 -14 -11 -33 -20 -42 -20 -15
0 -16 17 -14 178 2 97 0 183 -5 190 -7 11 -127 16 -151 6z"/>
<path d="M8365 4819 c-95 -71 -102 -85 -65 -116 18 -15 20 -30 20 -121 0 -120
15 -167 57 -183 43 -16 101 -5 134 27 34 32 39 74 10 74 -34 0 -42 24 -39 111
l3 84 30 5 c25 4 30 10 30 35 0 26 -4 30 -32 33 -30 3 -32 5 -35 50 -4 66 -26
66 -113 1z"/>
<path d="M3795 4783 c-58 -9 -60 -16 -59 -198 1 -189 -1 -185 80 -185 54 0 80
13 87 45 l4 20 8 -20 c15 -37 38 -55 69 -55 40 0 72 22 81 57 l6 27 21 -32
c24 -38 43 -44 123 -40 59 3 60 3 63 34 2 24 -7 46 -37 89 -23 32 -41 61 -41
64 0 3 14 12 31 20 55 24 78 122 39 161 -23 23 -77 27 -104 7 -10 -7 -21 -28
-25 -46 l-6 -34 -28 42 -28 42 -82 -3 c-80 -3 -82 -4 -85 -29 -2 -16 6 -37 21
-55 12 -16 33 -44 44 -63 l21 -34 -31 -21 c-21 -14 -37 -37 -47 -66 -15 -45
-15 -44 -17 95 -2 77 -5 150 -8 163 -6 23 -24 26 -100 15z m84 -70 c-1 -53 -6
-49 -11 10 -2 20 0 37 4 37 4 0 8 -21 7 -47z m389 -40 c-10 -27 -23 -43 -48
-55 -44 -21 -56 -22 -40 -3 7 8 17 15 23 15 25 0 57 44 57 79 1 28 3 32 10 19
7 -11 6 -29 -2 -55z m-391 -105 c-2 -18 -4 -4 -4 32 0 36 2 50 4 33 2 -18 2
-48 0 -65z m163 -2 c0 -3 -4 -8 -10 -11 -5 -3 -10 -1 -10 4 0 6 5 11 10 11 6
0 10 -2 10 -4z m-154 -132 c-7 -19 -117 -16 -123 3 -3 9 3 9 26 0 42 -15 85 0
90 33 l5 25 4 -23 c2 -13 1 -30 -2 -38z m153 -10 c-14 -17 -80 -16 -86 2 -2 6
10 8 31 6 27 -3 37 1 48 17 10 18 14 19 16 6 2 -9 -2 -23 -9 -31z m231 16 c0
-18 -7 -20 -70 -20 -38 0 -70 4 -70 8 0 5 25 7 55 4 44 -4 56 -1 61 12 9 22
24 20 24 -4z"/>
<path d="M5210 4768 c-54 -27 -87 -74 -96 -134 -14 -96 18 -178 86 -218 27
-16 52 -21 110 -21 86 0 130 20 166 73 42 61 42 182 0 245 -30 46 -98 77 -166
77 -38 0 -70 -7 -100 -22z m52 -21 c-6 -7 -12 -35 -15 -62 l-3 -50 -2 56 c-2
55 2 69 21 69 5 0 5 -5 -1 -13z m50 -58 c20 -54 46 -207 40 -232 -13 -51 -50
27 -79 166 -17 83 -14 122 10 114 6 -2 19 -24 29 -48z m-55 -91 c-3 -8 -6 -5
-6 6 -1 11 2 17 5 13 3 -3 4 -12 1 -19z m213 -107 c-26 -53 -80 -81 -152 -81
-48 0 -138 30 -138 45 0 3 12 -1 28 -8 15 -8 54 -17 87 -21 51 -5 66 -3 99 17
53 30 77 65 85 123 l6 49 3 -42 c2 -27 -4 -55 -18 -82z"/>
<path d="M5575 4783 c-58 -9 -60 -16 -59 -197 0 -92 4 -169 7 -173 13 -12 114
-15 136 -4 20 11 21 19 21 136 0 116 8 152 27 123 4 -7 8 -66 8 -131 0 -134 2
-137 76 -137 78 0 83 10 75 134 -4 70 -3 113 4 126 21 40 30 7 30 -115 0 -144
1 -145 93 -145 79 0 82 6 68 149 -6 66 -11 123 -11 128 0 4 20 8 45 9 24 0 42
-3 39 -8 -3 -5 7 -6 23 -3 19 5 24 4 14 -3 -10 -7 -6 -12 20 -17 45 -10 49
-13 42 -31 -5 -12 -7 -13 -17 0 -11 13 -114 52 -121 45 -2 -2 -5 -78 -6 -169
l-3 -165 24 -13 c32 -16 128 -10 141 9 5 8 9 24 9 37 0 18 6 22 33 22 90 0
161 55 183 142 l11 43 1 -57 c0 -31 5 -65 11 -76 25 -46 128 -67 185 -37 24
13 36 13 57 5 14 -6 46 -10 70 -8 36 2 45 7 47 24 3 22 3 22 27 -2 19 -19 34
-24 77 -24 38 0 49 3 38 10 -8 5 -31 10 -50 10 -34 0 -69 14 -60 24 3 2 19 7
35 11 24 5 27 4 15 -5 -12 -9 -9 -10 13 -5 19 4 26 2 22 -5 -3 -5 1 -10 9 -10
12 0 14 5 6 26 -16 42 -13 199 5 214 26 22 38 -33 31 -146 l-6 -101 25 -11
c35 -16 107 -15 129 1 17 12 17 22 7 148 -14 160 -25 205 -53 220 -27 15 -81
5 -117 -21 l-30 -20 -3 22 c-3 21 -7 23 -63 20 -33 -1 -69 -9 -81 -17 -21 -13
-22 -19 -16 -144 3 -90 2 -131 -6 -131 -10 0 -20 37 -41 165 -9 48 -17 66 -44
91 -58 53 -188 57 -248 7 -24 -20 -29 -33 -29 -67 0 -52 13 -66 61 -66 46 0
62 18 69 79 5 40 7 43 16 26 7 -11 15 -41 18 -67 l7 -48 -43 0 c-24 0 -60 -4
-81 -9 -59 -14 -74 -6 -82 46 -8 53 -60 116 -109 133 -32 10 -161 7 -230 -6
-26 -4 -41 -14 -48 -30 -13 -28 -22 -30 -40 -8 -46 56 -72 65 -123 44 -18 -7
-18 -8 8 -15 15 -4 26 -10 23 -12 -3 -3 -32 4 -65 16 -77 27 -83 26 -119 -4
l-30 -25 -6 25 c-7 26 -23 29 -101 18z m254 -29 c9 -10 -53 6 -63 17 -6 5 4 5
24 -1 18 -5 35 -12 39 -16z m133 -34 c35 0 77 -22 71 -37 -5 -12 -7 -12 -14
-1 -5 7 -39 23 -76 35 -37 13 -58 21 -45 19 12 -2 22 1 22 7 0 7 7 4 14 -5 7
-10 20 -18 28 -18z m268 -6 c15 -39 12 -54 -10 -54 -25 0 -34 21 -26 55 8 32
24 32 36 -1z m-527 -22 c-13 -2 -30 -13 -38 -25 -8 -12 -15 -17 -15 -11 0 27
44 58 65 45 6 -3 0 -7 -12 -9z m197 8 c0 -5 -5 -10 -12 -10 -6 0 -20 -8 -31
-17 -16 -14 -19 -15 -15 -3 2 8 15 21 29 27 29 15 29 15 29 3z m405 -60 c19
-8 19 -9 -2 -9 -12 -1 -25 4 -28 9 -7 12 2 12 30 0z m-648 -97 c-2 -21 -4 -6
-4 32 0 39 2 55 4 38 2 -18 2 -50 0 -70z m658 13 c6 -63 -4 -122 -21 -120 -22
2 -44 71 -44 136 l0 66 29 -11 c27 -10 30 -16 36 -71z m30 64 c-3 -5 -1 -10 6
-10 7 0 10 -3 6 -6 -3 -4 -14 -3 -24 0 -15 6 -15 8 -3 16 19 12 23 12 15 0z
m60 -20 c-3 -6 4 -10 17 -10 40 0 48 -17 32 -63 -28 -80 -55 -103 -139 -121
-28 -6 -29 -5 -11 9 11 8 28 15 37 15 38 0 109 85 109 129 0 6 -19 16 -41 23
-33 10 -38 13 -23 19 26 10 26 10 19 -1z m110 -20 c13 -6 15 -9 5 -9 -8 0 -22
4 -30 9 -18 12 -2 12 25 0z m47 -18 c-9 -6 0 -13 28 -21 22 -6 40 -15 40 -20
0 -4 -28 2 -61 13 -48 15 -58 21 -43 27 27 11 53 11 36 1z m68 -12 c0 -5 -7
-7 -15 -4 -8 4 -12 10 -9 15 6 11 24 2 24 -11z m-583 -52 c-2 -13 -4 -3 -4 22
0 25 2 35 4 23 2 -13 2 -33 0 -45z m190 5 c-3 -10 -5 -4 -5 12 0 17 2 24 5 18
2 -7 2 -21 0 -30z m430 31 c-3 -3 -12 -4 -19 -1 -8 3 -5 6 6 6 11 1 17 -2 13
-5z m60 -22 c-9 -2 -25 -18 -33 -35 -16 -29 -17 -30 -30 -12 -29 39 -8 74 25
43 11 -11 13 -10 8 3 -4 13 0 15 21 10 19 -3 22 -6 9 -9z m43 -11 c-10 -7 -2
-13 33 -22 40 -9 47 -15 47 -35 0 -22 -4 -24 -49 -24 -30 0 -53 5 -60 14 -10
12 -7 13 23 4 36 -11 66 -6 66 11 0 6 -26 18 -57 27 -47 14 -54 18 -38 25 11
4 27 8 35 8 13 1 13 -1 0 -8z m-1104 -68 c-4 -8 -23 -13 -55 -13 -54 0 -84 8
-76 20 3 5 18 3 33 -2 44 -17 82 -3 83 30 l0 27 10 -24 c5 -14 7 -31 5 -38z
m187 0 c-3 -8 -23 -13 -52 -13 -48 0 -81 13 -63 24 6 3 13 2 17 -4 7 -11 45
-13 69 -4 9 3 16 16 17 28 0 20 1 20 8 1 5 -11 6 -26 4 -32z m205 10 c-3 -14
-15 -19 -62 -21 -32 -2 -64 2 -69 7 -7 7 5 9 40 5 38 -5 53 -3 64 9 19 22 31
21 27 0z m638 -9 c-26 -23 -36 -26 -83 -22 -36 3 -60 11 -71 23 -16 18 -16 18
1 5 25 -19 122 -16 150 4 34 23 35 18 3 -10z m-436 -8 c0 -2 -7 -7 -16 -10 -8
-3 -12 -2 -9 4 6 10 25 14 25 6z m820 -6 c8 -5 11 -10 5 -10 -5 0 -17 5 -25
10 -8 5 -10 10 -5 10 6 0 17 -5 25 -10z m-844 -76 c-4 -11 -19 -14 -63 -12
-31 2 -58 8 -60 13 -2 6 18 9 52 7 46 -3 56 -1 62 14 4 11 8 13 11 6 2 -7 1
-19 -2 -28z"/>
<path d="M7449 4771 c-26 -21 -29 -53 -15 -178 16 -133 -3 -117 -42 37 l-37
145 -82 3 c-73 2 -82 1 -87 -16 -4 -11 -2 -31 4 -46 5 -15 21 -72 35 -128 30
-116 43 -140 91 -163 19 -9 34 -18 34 -20 0 -3 -26 -2 -57 1 -61 5 -101 -8
-74 -25 11 -7 11 -9 0 -14 -10 -4 -8 -7 6 -12 11 -3 28 -19 37 -35 19 -33 75
-49 111 -32 20 10 19 11 -13 11 -50 2 -80 11 -80 26 0 7 -5 15 -12 17 -7 3 -5
7 6 11 9 4 15 3 12 -2 -3 -5 1 -11 9 -15 8 -3 15 -1 15 4 0 6 5 10 11 10 5 0
8 -4 4 -10 -3 -5 9 -13 27 -18 31 -8 35 -5 81 47 26 31 67 94 90 140 37 74 42
95 46 163 3 65 0 83 -14 99 -23 25 -76 25 -106 0z"/>
</g>
</svg>
